<svg width="200" height="146" viewBox="0 0 200 146" fill="none" xmlns="http://www.w3.org/2000/svg">
<rect width="200" height="146" rx="10" fill="#C4C4C4"/>
<path d="M86 54.5864C86 44.2633 78.5483 35.6866 68.7736 34.0439C68.4809 22.372 58.9643 13 47.2791 13C35.4047 13 25.7675 22.6833 25.7675 34.6145V61.4167C25.7675 66.1892 21.9127 70.0625 17.1629 70.0625H16.3024C13.9275 70.0625 12 71.9992 12 74.3855C12 76.7717 13.9275 78.7083 16.3024 78.7083H17.1628C26.6623 78.7083 34.3721 70.9616 34.3721 61.4166V34.6145C34.3721 27.4558 40.1545 21.6458 47.2791 21.6458C54.3349 21.6458 60.081 27.3347 60.1861 34.407C51.2717 36.7241 44.6977 44.8858 44.6977 54.5864V75.1634C44.6977 86.6625 53.9391 96 65.3489 96C76.7586 96 86 86.6625 86 75.1636V54.5864ZM68.7907 45.8542V56.2292C68.7907 58.1312 67.2418 59.6875 65.3489 59.6875C63.4559 59.6875 61.907 58.1312 61.907 56.2292V45.8542C61.907 43.9522 63.4559 42.3959 65.3489 42.3959C67.2418 42.3959 68.7907 43.952 68.7907 45.8542Z" fill="#F8F8F9"/>
<path d="M131.832 85.9137C131.832 90.6339 128.118 94.4602 123.537 94.4602C118.955 94.4602 115.242 90.6339 115.242 85.9137C115.242 81.1935 118.955 77.3671 123.537 77.3671C128.118 77.3671 131.832 81.1935 131.832 85.9137Z" fill="#F8F8F9"/>
<path d="M188.139 85.9137C188.139 90.6339 184.425 94.4602 179.844 94.4602C175.262 94.4602 171.548 90.6339 171.548 85.9137C171.548 81.1935 175.262 77.3671 179.844 77.3671C184.425 77.3671 188.139 81.1935 188.139 85.9137Z" fill="#F8F8F9"/>
<path d="M188.139 49.3507V15.6215H120.646C120.646 12.5169 118.128 10 115.022 10H98.1486V15.6215H109.397L113.622 51.8149C111.048 53.8754 109.397 57.0412 109.397 60.5938C109.397 66.8035 114.434 71.8369 120.646 71.8369H188.139V66.2153H120.646C117.54 66.2153 115.022 63.6985 115.022 60.5938C115.022 60.5747 115.023 60.5555 115.023 60.5362L188.139 49.3507Z" fill="#F8F8F9"/>
<path d="M29.3252 118.154V122.849C29.3252 124.754 29.1149 126.43 28.6943 127.877C28.2861 129.312 27.6862 130.512 26.8945 131.477C26.1029 132.441 25.1504 133.165 24.0371 133.647C22.9238 134.13 21.6683 134.371 20.2705 134.371C18.9222 134.371 17.6914 134.13 16.5781 133.647C15.4648 133.165 14.5062 132.441 13.7021 131.477C12.8981 130.512 12.2734 129.312 11.8281 127.877C11.3952 126.43 11.1787 124.754 11.1787 122.849V118.154C11.1787 116.249 11.3952 114.579 11.8281 113.145C12.2611 111.697 12.8796 110.491 13.6836 109.526C14.4876 108.562 15.4463 107.838 16.5596 107.355C17.6729 106.861 18.9036 106.613 20.252 106.613C21.6497 106.613 22.9053 106.861 24.0186 107.355C25.1442 107.838 26.0967 108.562 26.876 109.526C27.6676 110.491 28.2738 111.697 28.6943 113.145C29.1149 114.579 29.3252 116.249 29.3252 118.154ZM25.9482 122.849V118.117C25.9482 116.633 25.8245 115.359 25.5771 114.295C25.3298 113.219 24.9648 112.34 24.4824 111.66C24 110.98 23.4062 110.479 22.7012 110.157C21.9961 109.823 21.1797 109.656 20.252 109.656C19.3737 109.656 18.582 109.823 17.877 110.157C17.1842 110.479 16.5905 110.98 16.0957 111.66C15.6009 112.34 15.2174 113.219 14.9453 114.295C14.6855 115.359 14.5557 116.633 14.5557 118.117V122.849C14.5557 124.345 14.6855 125.632 14.9453 126.708C15.2174 127.772 15.6009 128.65 16.0957 129.343C16.6029 130.023 17.209 130.53 17.9141 130.864C18.6191 131.186 19.4046 131.347 20.2705 131.347C21.1982 131.347 22.0146 131.186 22.7197 130.864C23.4372 130.53 24.0309 130.023 24.501 129.343C24.9834 128.65 25.3421 127.772 25.5771 126.708C25.8245 125.632 25.9482 124.345 25.9482 122.849ZM37.4521 118.21V134H34.168V113.924H37.2666L37.4521 118.21ZM36.6543 123.201L35.3184 123.146C35.306 121.772 35.4606 120.505 35.7822 119.342C36.1162 118.167 36.5863 117.146 37.1924 116.28C37.8109 115.414 38.5469 114.746 39.4004 114.276C40.2539 113.794 41.2002 113.553 42.2393 113.553C43.0557 113.553 43.7979 113.689 44.4658 113.961C45.1338 114.221 45.7028 114.641 46.1729 115.223C46.6429 115.804 47.0016 116.559 47.249 117.486C47.5088 118.402 47.6387 119.521 47.6387 120.845V134H44.3545V120.808C44.3545 119.756 44.237 118.915 44.002 118.284C43.7793 117.641 43.4329 117.177 42.9629 116.893C42.5052 116.596 41.9238 116.447 41.2188 116.447C40.5755 116.447 39.9756 116.627 39.4189 116.985C38.8623 117.344 38.3737 117.839 37.9531 118.47C37.5449 119.101 37.2233 119.824 36.9883 120.641C36.7656 121.445 36.6543 122.298 36.6543 123.201ZM56.0996 105.5V134H52.834V105.5H56.0996ZM64.8203 113.924V134H61.5547V113.924H64.8203ZM61.3691 108.599C61.3691 108.042 61.5238 107.572 61.833 107.188C62.1423 106.805 62.6061 106.613 63.2246 106.613C63.8431 106.613 64.307 106.805 64.6162 107.188C64.9378 107.572 65.0986 108.042 65.0986 108.599C65.0986 109.131 64.9378 109.588 64.6162 109.972C64.307 110.343 63.8431 110.528 63.2246 110.528C62.6061 110.528 62.1423 110.343 61.833 109.972C61.5238 109.588 61.3691 109.131 61.3691 108.599ZM73.2998 118.21V134H70.0156V113.924H73.1143L73.2998 118.21ZM72.502 123.201L71.166 123.146C71.1536 121.772 71.3083 120.505 71.6299 119.342C71.9639 118.167 72.4339 117.146 73.04 116.28C73.6585 115.414 74.3945 114.746 75.248 114.276C76.1016 113.794 77.0479 113.553 78.0869 113.553C78.9033 113.553 79.6455 113.689 80.3135 113.961C80.9814 114.221 81.5505 114.641 82.0205 115.223C82.4906 115.804 82.8493 116.559 83.0967 117.486C83.3564 118.402 83.4863 119.521 83.4863 120.845V134H80.2021V120.808C80.2021 119.756 80.0846 118.915 79.8496 118.284C79.627 117.641 79.2806 117.177 78.8105 116.893C78.3529 116.596 77.7715 116.447 77.0664 116.447C76.4232 116.447 75.8232 116.627 75.2666 116.985C74.71 117.344 74.2214 117.839 73.8008 118.47C73.3926 119.101 73.071 119.824 72.8359 120.641C72.6133 121.445 72.502 122.298 72.502 123.201ZM95.6025 134.371C94.4027 134.371 93.3203 134.192 92.3555 133.833C91.3906 133.474 90.568 132.93 89.8877 132.2C89.2074 131.458 88.6878 130.524 88.3291 129.398C87.9704 128.273 87.791 126.943 87.791 125.409V123.146C87.791 121.377 87.9951 119.88 88.4033 118.655C88.8239 117.431 89.3867 116.447 90.0918 115.705C90.7969 114.951 91.5947 114.406 92.4854 114.072C93.376 113.726 94.2913 113.553 95.2314 113.553C96.4932 113.553 97.5693 113.757 98.46 114.165C99.3506 114.573 100.074 115.179 100.631 115.983C101.188 116.787 101.596 117.777 101.855 118.952C102.128 120.127 102.264 121.482 102.264 123.016V124.927H89.7207V122.125H98.9795V121.661C98.93 120.622 98.7878 119.707 98.5527 118.915C98.3301 118.123 97.959 117.505 97.4395 117.06C96.9199 116.602 96.1839 116.373 95.2314 116.373C94.6253 116.373 94.0625 116.478 93.543 116.688C93.0358 116.886 92.5967 117.239 92.2256 117.746C91.8669 118.241 91.5824 118.927 91.3721 119.806C91.1742 120.684 91.0752 121.797 91.0752 123.146V125.409C91.0752 126.485 91.1742 127.413 91.3721 128.192C91.5824 128.959 91.8854 129.596 92.2812 130.104C92.6895 130.598 93.1842 130.969 93.7656 131.217C94.3594 131.452 95.0335 131.569 95.7881 131.569C96.889 131.569 97.7982 131.359 98.5156 130.938C99.2331 130.506 99.8577 129.955 100.39 129.287L102.115 131.347C101.757 131.854 101.286 132.342 100.705 132.812C100.136 133.27 99.431 133.647 98.5898 133.944C97.7611 134.229 96.7653 134.371 95.6025 134.371ZM127.22 127.172C127.22 126.541 127.146 125.984 126.997 125.502C126.849 125.007 126.589 124.562 126.218 124.166C125.847 123.77 125.327 123.393 124.659 123.034C123.991 122.675 123.144 122.311 122.117 121.939C121.004 121.544 119.996 121.104 119.093 120.622C118.19 120.127 117.417 119.564 116.773 118.934C116.143 118.303 115.654 117.579 115.308 116.763C114.961 115.946 114.788 115.012 114.788 113.961C114.788 112.91 114.967 111.938 115.326 111.048C115.697 110.157 116.217 109.384 116.885 108.729C117.565 108.061 118.382 107.541 119.334 107.17C120.286 106.799 121.35 106.613 122.525 106.613C124.282 106.613 125.76 107.003 126.96 107.782C128.172 108.549 129.088 109.557 129.706 110.807C130.325 112.044 130.634 113.367 130.634 114.777H127.22C127.22 113.763 127.053 112.866 126.719 112.087C126.397 111.295 125.89 110.677 125.197 110.231C124.517 109.774 123.626 109.545 122.525 109.545C121.536 109.545 120.719 109.737 120.076 110.12C119.445 110.504 118.975 111.023 118.666 111.679C118.369 112.334 118.221 113.083 118.221 113.924C118.221 114.493 118.32 115.012 118.518 115.482C118.715 115.94 119.019 116.367 119.427 116.763C119.847 117.159 120.367 117.523 120.985 117.857C121.616 118.191 122.358 118.513 123.212 118.822C124.535 119.255 125.667 119.738 126.607 120.27C127.548 120.801 128.314 121.401 128.908 122.069C129.502 122.725 129.935 123.473 130.207 124.314C130.492 125.143 130.634 126.083 130.634 127.135C130.634 128.236 130.448 129.231 130.077 130.122C129.718 131.013 129.193 131.773 128.5 132.404C127.807 133.035 126.972 133.524 125.995 133.87C125.018 134.204 123.917 134.371 122.692 134.371C121.629 134.371 120.583 134.198 119.557 133.852C118.542 133.505 117.621 132.986 116.792 132.293C115.963 131.6 115.301 130.747 114.807 129.732C114.312 128.706 114.064 127.518 114.064 126.17H117.479C117.479 127.098 117.615 127.896 117.887 128.563C118.159 129.219 118.536 129.763 119.019 130.196C119.501 130.629 120.051 130.951 120.67 131.161C121.301 131.359 121.975 131.458 122.692 131.458C123.682 131.458 124.511 131.285 125.179 130.938C125.859 130.592 126.366 130.097 126.7 129.454C127.047 128.811 127.22 128.05 127.22 127.172ZM141.989 113.924V116.559H132.619V113.924H141.989ZM135.681 109.044H138.965V129.027C138.965 129.708 139.045 130.221 139.206 130.567C139.379 130.914 139.596 131.143 139.855 131.254C140.115 131.365 140.394 131.421 140.69 131.421C140.913 131.421 141.16 131.396 141.433 131.347C141.705 131.285 141.89 131.235 141.989 131.198L141.971 134C141.748 134.087 141.451 134.167 141.08 134.241C140.709 134.328 140.239 134.371 139.67 134.371C138.965 134.371 138.309 134.204 137.703 133.87C137.097 133.536 136.608 132.979 136.237 132.2C135.866 131.409 135.681 130.345 135.681 129.009V109.044ZM144.847 124.927V123.016C144.847 121.457 145.045 120.09 145.44 118.915C145.836 117.728 146.387 116.738 147.092 115.946C147.797 115.155 148.619 114.561 149.56 114.165C150.5 113.757 151.508 113.553 152.584 113.553C153.685 113.553 154.705 113.757 155.646 114.165C156.586 114.561 157.408 115.155 158.113 115.946C158.831 116.738 159.387 117.728 159.783 118.915C160.179 120.09 160.377 121.457 160.377 123.016V124.927C160.377 126.485 160.179 127.858 159.783 129.046C159.387 130.221 158.837 131.204 158.132 131.996C157.427 132.788 156.604 133.382 155.664 133.777C154.724 134.173 153.71 134.371 152.621 134.371C151.533 134.371 150.518 134.173 149.578 133.777C148.638 133.382 147.809 132.788 147.092 131.996C146.387 131.204 145.836 130.221 145.44 129.046C145.045 127.858 144.847 126.485 144.847 124.927ZM148.131 123.016V124.927C148.131 126.028 148.242 126.993 148.465 127.821C148.688 128.65 149.003 129.343 149.411 129.899C149.819 130.456 150.296 130.877 150.84 131.161C151.384 131.433 151.978 131.569 152.621 131.569C153.363 131.569 154.013 131.433 154.569 131.161C155.138 130.877 155.608 130.456 155.979 129.899C156.351 129.343 156.629 128.65 156.814 127.821C157 126.993 157.093 126.028 157.093 124.927V123.016C157.093 121.915 156.981 120.956 156.759 120.14C156.536 119.311 156.221 118.618 155.812 118.062C155.404 117.493 154.922 117.072 154.365 116.8C153.821 116.515 153.227 116.373 152.584 116.373C151.953 116.373 151.366 116.515 150.821 116.8C150.277 117.072 149.801 117.493 149.393 118.062C148.997 118.618 148.688 119.311 148.465 120.14C148.242 120.956 148.131 121.915 148.131 123.016ZM167.892 117.078V134H164.607V113.924H167.78L167.892 117.078ZM172.883 113.812L172.901 117.004C172.629 116.942 172.382 116.905 172.159 116.893C171.949 116.868 171.701 116.855 171.417 116.855C170.799 116.855 170.254 116.979 169.784 117.227C169.326 117.474 168.931 117.82 168.597 118.266C168.263 118.711 167.997 119.243 167.799 119.861C167.601 120.467 167.465 121.135 167.391 121.865L166.537 122.422C166.537 121.21 166.63 120.072 166.815 119.008C167.013 117.944 167.316 117.004 167.725 116.188C168.133 115.359 168.652 114.715 169.283 114.258C169.926 113.788 170.693 113.553 171.584 113.553C171.782 113.553 172.023 113.584 172.308 113.646C172.604 113.695 172.796 113.751 172.883 113.812ZM182.995 134.371C181.795 134.371 180.713 134.192 179.748 133.833C178.783 133.474 177.961 132.93 177.28 132.2C176.6 131.458 176.08 130.524 175.722 129.398C175.363 128.273 175.184 126.943 175.184 125.409V123.146C175.184 121.377 175.388 119.88 175.796 118.655C176.216 117.431 176.779 116.447 177.484 115.705C178.189 114.951 178.987 114.406 179.878 114.072C180.769 113.726 181.684 113.553 182.624 113.553C183.886 113.553 184.962 113.757 185.853 114.165C186.743 114.573 187.467 115.179 188.023 115.983C188.58 116.787 188.988 117.777 189.248 118.952C189.52 120.127 189.656 121.482 189.656 123.016V124.927H177.113V122.125H186.372V121.661C186.323 120.622 186.18 119.707 185.945 118.915C185.723 118.123 185.352 117.505 184.832 117.06C184.312 116.602 183.576 116.373 182.624 116.373C182.018 116.373 181.455 116.478 180.936 116.688C180.428 116.886 179.989 117.239 179.618 117.746C179.259 118.241 178.975 118.927 178.765 119.806C178.567 120.684 178.468 121.797 178.468 123.146V125.409C178.468 126.485 178.567 127.413 178.765 128.192C178.975 128.959 179.278 129.596 179.674 130.104C180.082 130.598 180.577 130.969 181.158 131.217C181.752 131.452 182.426 131.569 183.181 131.569C184.282 131.569 185.191 131.359 185.908 130.938C186.626 130.506 187.25 129.955 187.782 129.287L189.508 131.347C189.149 131.854 188.679 132.342 188.098 132.812C187.529 133.27 186.824 133.647 185.982 133.944C185.154 134.229 184.158 134.371 182.995 134.371Z" fill="#F8F8F9"/>
</svg>
